<?xml version="1.0" ?>
<!-- Uploaded to: SVG Repo, www.svgrepo.com, Generator: SVG Repo Mixer Tools -->
<svg width="800px" height="800px" viewBox="0 0 24 24" version="1.1" xml:space="preserve" xmlns="http://www.w3.org/2000/svg" xmlns:xlink="http://www.w3.org/1999/xlink">
<style type="text/css">
	.st0{opacity:0.2;fill:none;stroke:#000000;stroke-width:5.000000e-02;stroke-miterlimit:10;}
</style>
<g id="grid_system"/>
<g id="_icons">
<g>
<path d="M13.3,16.3L13,16.6V13c0-0.6-0.4-1-1-1s-1,0.4-1,1v3.6l-0.3-0.3c-0.4-0.4-1-0.4-1.4,0s-0.4,1,0,1.4l2,2    c0.1,0.1,0.2,0.2,0.3,0.2C11.7,20,11.9,20,12,20s0.3,0,0.4-0.1c0.1-0.1,0.2-0.1,0.3-0.2l2-2c0.4-0.4,0.4-1,0-1.4    S13.7,15.9,13.3,16.3z"/>
<path d="M19.6,9.6c-0.3-0.7-0.7-1.4-1.3-1.9c-1.2-1.2-2.9-1.8-4.6-1.6c-0.1-0.2-0.3-0.3-0.4-0.4C12.4,4.6,11,4,9.5,4    S6.6,4.6,5.6,5.6C4.6,6.6,4,8,4,9.5c0,0.1,0,0.2,0,0.3c-0.2,0.2-0.5,0.3-0.7,0.6c-0.9,0.8-1.3,2-1.3,3.2C2,16,4,18,6.5,18    c0.6,0,1-0.4,1-1s-0.4-1-1-1C5.1,16,4,14.9,4,13.5c0-0.7,0.3-1.3,0.7-1.8c0.2-0.2,0.5-0.4,0.7-0.5c0.4-0.2,0.7-0.6,0.6-1.1    C6,9.9,6,9.7,6,9.5C6,8.6,6.4,7.7,7,7c1.3-1.3,3.6-1.3,4.9,0c0.2,0.2,0.4,0.4,0.5,0.7c0.2,0.4,0.7,0.5,1.1,0.4    C13.9,8,14.2,8,14.5,8c0.9,0,1.8,0.4,2.5,1c0.4,0.4,0.7,0.9,0.9,1.5c0.1,0.3,0.3,0.5,0.6,0.7c0.9,0.4,1.5,1.3,1.5,2.3    c0,0.7-0.3,1.3-0.7,1.8c-0.5,0.5-1.1,0.7-1.8,0.7c-0.6,0-1,0.4-1,1s0.4,1,1,1c1.2,0,2.3-0.5,3.2-1.3c0.9-0.8,1.3-2,1.3-3.2    C22,11.8,21.1,10.3,19.6,9.6z"/>
</g>
</g>
</svg>